<?xml version="1.0" encoding="UTF-8"?>
<svg version="1.1" xmlns="http://www.w3.org/2000/svg" width="500" height="500" viewBox="0 0 500 500">
<path d="M0 0 C165 0 330 0 500 0 C500 165 500 330 500 500 C335 500 170 500 0 500 C0 335 0 170 0 0 Z " fill="#FEFEFE" transform="translate(0,0)"/>
<path d="M0 0 C18.81 0 37.62 0 57 0 C59.65901865 6.64754663 62.1957018 13.24596441 64.51171875 20.0078125 C64.83681931 20.94975464 65.16191986 21.89169678 65.49687195 22.86218262 C66.19659994 24.88966608 66.89534828 26.91748787 67.59320068 28.94561768 C69.489607 34.45544542 71.39460402 39.96229612 73.30078125 45.46875 C73.69269653 46.60091949 74.08461182 47.73308899 74.48840332 48.89956665 C78.39288379 60.16197325 82.37942291 71.39466504 86.375 82.625 C93.39399428 102.36377149 100.2670088 122.15088475 107.08276367 141.96069336 C110.7895442 152.73041745 114.51245754 163.49324478 118.3125 174.23046875 C118.81303642 175.64744553 118.81303642 175.64744553 119.32368469 177.0930481 C120.87119879 181.47299548 122.42450536 185.85070357 123.98901367 190.22460938 C124.52809564 191.74730253 125.06693015 193.27008333 125.60546875 194.79296875 C125.85131714 195.47248093 126.09716553 196.1519931 126.35046387 196.85209656 C127.50983575 200.15096651 128 202.44260442 128 206 C112.82 206 97.64 206 82 206 C78.5659375 196.0071875 78.5659375 196.0071875 75.0625 185.8125 C73.97980835 182.67004761 73.97980835 182.67004761 72.87524414 179.46411133 C72.30329555 177.79517119 71.73158364 176.12614991 71.16015625 174.45703125 C70.86298706 173.59734741 70.56581787 172.73766357 70.25964355 171.85192871 C69.97552612 171.02012085 69.69140869 170.18831299 69.39868164 169.33129883 C69.15219376 168.61404129 68.90570587 167.89678375 68.65174866 167.15779114 C67.94374387 164.81374879 67.48021651 162.40108255 67 160 C41.92 160 16.84 160 -9 160 C-9.33 162.31 -9.66 164.62 -10 167 C-10.60083008 169.24072266 -10.60083008 169.24072266 -11.26953125 171.1640625 C-11.51662842 171.88730713 -11.76372559 172.61055176 -12.01831055 173.35571289 C-12.28039307 174.10457764 -12.54247559 174.85344238 -12.8125 175.625 C-13.35797868 177.21963942 -13.90224234 178.81469497 -14.4453125 180.41015625 C-14.71118164 181.18891113 -14.97705078 181.96766602 -15.25097656 182.77001953 C-16.60135283 186.79033792 -17.82290017 190.84883208 -19.04296875 194.91015625 C-20.29753962 198.96062791 -21.65909476 202.97728427 -23 207 C-38.51 207 -54.02 207 -70 207 C-66.62491596 194.62469184 -66.62491596 194.62469184 -64.86206055 189.43505859 C-64.46647949 188.26529984 -64.07089844 187.09554108 -63.66333008 185.89033508 C-63.24204834 184.65550888 -62.8207666 183.42068268 -62.38671875 182.1484375 C-61.935922 180.81948545 -61.48540817 179.4904374 -61.03515625 178.16130066 C-59.83752006 174.62860802 -58.6358526 171.09729953 -57.43331528 167.56627274 C-56.17628793 163.87301271 -54.92300187 160.17848325 -53.66918945 156.48413086 C-50.78465235 147.98765115 -47.89360673 139.49339467 -45 131 C-44.63100586 129.91684509 -44.26201172 128.83369019 -43.88183594 127.7177124 C-41.27810654 120.07648988 -38.67140209 112.43628965 -36.05737305 104.79858398 C-32.97954471 95.8050386 -29.91437992 86.80734033 -26.86328125 77.8046875 C-18.05323167 51.8170158 -9.1077575 25.88520553 0 0 Z " fill="#384252" transform="translate(344,146)"/>
<path d="M0 0 C14.52 0 29.04 0 44 0 C44 56.43 44 112.86 44 171 C73.37 171 102.74 171 133 171 C133 182.88 133 194.76 133 207 C89.44 207 45.88 207 1 207 C0.835 185.653125 0.67 164.30625 0.5 142.3125 C0.44779297 135.73610596 0.39558594 129.15971191 0.34179688 122.3840332 C0.29991757 116.89795425 0.25843038 111.41187606 0.21875 105.92578125 C0.21350626 105.20399634 0.20826252 104.48221142 0.20285988 103.73855424 C-0.04651896 69.15889905 -0.04856511 34.5803817 0 0 Z " fill="#3B82F6" transform="translate(38,147)"/>
<path d="M0 0 C0.66 0 1.32 0 2 0 C2.49918569 1.49755707 2.99836903 2.99511492 3.49754333 4.49267578 C3.95467042 5.86402581 4.41183549 7.23536317 4.86903381 8.60668945 C6.1782085 12.53364613 7.48667196 16.46083767 8.79394531 20.38842773 C11.44163766 28.34073784 14.09485956 36.29105372 16.77046204 44.23402405 C17.9745494 47.80953807 19.17534607 51.38615332 20.37588501 54.96286011 C20.95823632 56.69478749 21.54219868 58.426174 22.1277771 60.15701294 C22.94862677 62.58379789 23.76395335 65.0123742 24.578125 67.44140625 C24.82442154 68.16481201 25.07071808 68.88821777 25.32447815 69.63354492 C26.29729241 72.55099455 27 74.90164903 27 78 C10.17 78 -6.66 78 -24 78 C-22.87532637 69.00261097 -22.87532637 69.00261097 -21.328125 64.3125 C-20.99611084 63.29244873 -20.66409668 62.27239746 -20.32202148 61.22143555 C-19.96825439 60.15836182 -19.6144873 59.09528809 -19.25 58 C-18.5164267 55.75667398 -17.78335287 53.51318457 -17.05078125 51.26953125 C-16.69580566 50.18881348 -16.34083008 49.1080957 -15.97509766 47.99462891 C-14.75191731 44.23811158 -13.59145465 40.46583312 -12.4375 36.6875 C-10.03572494 28.95297013 -7.35491472 21.32384316 -4.6484375 13.69140625 C-3.04000383 9.14686732 -1.50778078 4.57880568 0 0 Z " fill="#FCFCFC" transform="translate(372,193)"/>
<path d="M0 0 C6.02253228 3.59060064 11.41385595 9.86656786 13.625 16.5 C14.76029521 24.54911547 13.27019586 30.83057522 8.625 37.5 C4.16019128 42.52688678 -1.15344025 45.91457569 -7.91015625 46.8515625 C-15.07641754 47.23456943 -20.49528996 45.6188862 -26.375 41.5 C-30.91383478 37.29006629 -34.10290349 33.14649657 -34.74609375 26.890625 C-35.14463955 13.50142232 -35.14463955 13.50142232 -30.93359375 8.109375 C-22.53222619 -0.56572133 -12.0659863 -5.33642447 0 0 Z " fill="#3D83F6" transform="translate(235.375,309.5)"/>
</svg>
